<?xml version="1.0" encoding="utf-8"?>
<!-- Generator: Adobe Illustrator 27.7.0, SVG Export Plug-In . SVG Version: 6.00 Build 0)  -->
<svg version="1.1" id="Layer_1" xmlns="http://www.w3.org/2000/svg" xmlns:xlink="http://www.w3.org/1999/xlink" x="0px" y="0px"
	 viewBox="0 0 640 160" style="enable-background:new 0 0 640 160;" xml:space="preserve">
<style type="text/css">
	.st0{fill:#FFFFFF;}
	.st1{fill:none;stroke:#FFFFFF;stroke-width:1.75;stroke-miterlimit:10;}
	.st2{fill:#231F20;}
	.st3{fill:#00AE42;}
	.st4{fill:#1A5632;}
	.st5{fill:#002D5D;}
</style>
<path class="st0" d="M195.4,71.1c-0.5-2.6-2.2-5.1-3.6-6.1c-5.4,5.7-12.4,9.1-19.8,9.1c-18,0-32.8-15.3-32.8-33.8
	c0-18.6,14.7-33.8,32.8-33.8c7.5,0,14.4,3.3,19.8,9.1c1.4-1.1,3.1-3.4,3.6-6.1h2.1V33h-2.1c-3-13.9-11.2-22.3-23-22.3
	c-17.1,0-23.3,16.4-23.3,29.7c0,13.2,6.2,29.6,23.3,29.6c11.8,0,20.1-8.5,23-22.2h2.1v23.5h-2.1V71.1z"/>
<path class="st0" d="M237.9,74.1c-19.5,0-35.5-15.3-35.5-33.8c0-18.6,16-33.8,35.5-33.8c19.6,0,35.6,15.3,35.6,33.8
	S257.5,74.1,237.9,74.1z M212.5,40.2c0,13.2,7,29.6,25.4,29.6c18.5,0,25.5-16.3,25.5-29.6c0-13.2-7-29.7-25.5-29.7
	C219.5,10.6,212.5,27,212.5,40.2z"/>
<path class="st0" d="M274.2,70c8.9,0,10.1-1.8,10.1-12.5V22.8c0-10.7-1.3-12.4-10.1-12.4V8.2H303v2.2c-8.9,0-10.1,1.7-10.1,12.4
	v33.1c0,10.7,1.3,12.4,10.1,12.4h12.8c9.7,0,10.9-2.5,12.3-8.1l0.5-2.1h2.2l-0.9,14.2h-55.8L274.2,70L274.2,70z"/>
<path class="st0" d="M370.7,10.5V8.2h25v2.2c-8.9,0-10.2,1.7-10.2,12.4v25.6c0,16.7-11.5,25.6-25.7,25.6c-14.1,0-25.6-8.9-25.6-25.6
	V22.8c0-10.7-1.3-12.4-10.1-12.4V8.2h28.8v2.2c-8.9,0-10.1,1.7-10.1,12.4v26.1c0,13.9,8,20.3,18.7,20.3c11.2,0,19.6-6.4,19.6-20.3
	V22.8C380.9,12.2,379.6,10.5,370.7,10.5z"/>
<path class="st0" d="M412.4,57.5c0,10.7,1.4,12.5,10.2,12.5v2.2h-24.3V70c8.9,0,10.1-1.8,10.1-12.5V22.8c0-10.7-1.3-12.4-10.1-12.4
	V8.2h18.2l22.6,52l22.5-52h16.7v2.2c-9,0-10.2,1.7-10.2,12.4v34.7c0,10.7,1.3,12.5,10.2,12.5v2.2h-28.8V70c8.9,0,10.1-1.8,10.1-12.5
	V22.7l-22.1,51.4h-1.4l-23.7-54.5V57.5z"/>
<path class="st0" d="M536.8,54.3c0,9.9-8.1,17.9-22.9,17.9h-31.7V70c8.9,0,10.1-1.8,10.1-12.5V22.8c0-10.7-1.3-12.4-10.1-12.4V8.2
	h28.7c13.5,0,20.6,7.1,20.6,16c0,5.5-3.4,10.3-8.3,13.2C531.4,40,536.8,46.6,536.8,54.3z M500.9,36.2h9.5c8,0,11.7-5.3,11.7-11.9
	s-3.7-12.1-11.7-12.1h-9.5V36.2z M527.4,54.3c0-7.8-4.4-14.2-13.7-14.2h-12.9v15.8c0,10.7,1.3,12.4,10.1,12.4h2.8
	C523.1,68.3,527.4,62,527.4,54.3z"/>
<path class="st0" d="M538.4,72.3v-2.2c8.9,0,10.1-1.8,10.1-12.5V22.9c0-10.7-1.3-12.4-10.1-12.4V8.2h28.8v2.2
	c-8.9,0-10.1,1.7-10.1,12.4v34.7c0,10.7,1.3,12.5,10.1,12.5v2.2L538.4,72.3L538.4,72.3z"/>
<path class="st0" d="M577.3,61.9c-2.6,5.8-0.5,8.1,8.3,8.1v2.2h-25V70c9,0,9.5-1.8,12.8-9.3l23.5-54.3h1.4l23.6,54.3
	c3.3,7.5,3.8,9.3,12.7,9.3v2.2H605V70c8.9,0,10.9-2.2,8.3-8.1l-5.1-11.8h-25.8L577.3,61.9z M595.2,20.4l-11.1,25.7h22.3L595.2,20.4z
	"/>
<path class="st0" d="M147.9,153.2h-2.2v-23.5h2.1c0,0,0.2,19.2,19.7,19.2c7.6,0,13.3-4.9,13.3-11.7c0-4.9-4.9-9.1-12.3-12.9
	l-10.2-5.2c-6.2-3.2-11.8-9.5-11.8-17.6c0-8.9,7.4-15.9,17.7-15.9c6.3,0,9.8,2,13,4.4c1.3-1.1,2.6-2.7,3.1-4.9h2.2v23.5h-2.2
	c-0.7-8.5-3.9-18.7-16.3-18.7c-6,0-10.3,4.2-10.3,9.5c0,5.5,3.7,8.4,12.9,13.2l10.2,5.2c8.2,4.2,11.1,10.3,11.1,16.2
	c0,11.6-9.3,19.2-20.3,19.2c-8.1,0-13.2-4.3-16.6-5C149.7,149.3,148.4,150.9,147.9,153.2z"/>
<path class="st0" d="M252.1,101.8h-2.2l-0.5-2.1c-1.5-5.7-2.6-8.1-12.4-8.1h-14v45.1c0,10.7,1.4,12.5,10.2,12.5v2.2h-28.9v-2.2
	c8.9,0,10.2-1.8,10.2-12.5V91.6h-14c-9.8,0-10.9,2.5-12.4,8.1l-0.5,2.1h-2.2l1-14.4h64.8L252.1,101.8z"/>
<path class="st0" d="M253,141c-2.6,5.8-0.5,8.1,8.3,8.1v2.2h-25v-2.2c9,0,9.5-1.8,12.8-9.3l23.5-54.3h1.4l23.6,54.3
	c3.3,7.5,3.8,9.3,12.7,9.3v2.2h-29.6v-2.2c8.9,0,10.9-2.2,8.3-8.1l-5.1-11.8h-25.8L253,141z M270.9,99.5l-11.1,25.7h22.3L270.9,99.5
	z"/>
<path class="st0" d="M361,101.8h-2.2l-0.5-2.1c-1.5-5.7-2.6-8.1-12.4-8.1h-14v45.1c0,10.7,1.4,12.5,10.2,12.5v2.2h-28.9v-2.2
	c8.9,0,10.2-1.8,10.2-12.5V91.6h-14c-9.8,0-10.9,2.5-12.4,8.1l-0.5,2.1h-2.2l1-14.4h64.8L361,101.8z"/>
<path class="st0" d="M362.9,149.1c8.9,0,10.1-1.8,10.1-12.5v-34.7c0-10.7-1.3-12.4-10.1-12.4v-2.2h48.6l1,14.1h-2.2l-0.5-2.1
	c-1.5-5.5-2.6-8-12.4-8h-15.8v24.2h5.3c10.7,0,12.4-1.3,12.4-10.2h2.2v24.4h-2.2c0-9-1.7-10.2-12.4-10.2h-5.3v15.6
	c0,10.7,1.3,12.4,10.1,12.4h9.2c9.8,0,11-2.5,12.4-8.1l0.5-2.1h2.2l-0.9,14.2h-52.3v-2.4H362.9z"/>
<path class="st0" d="M444.2,95.4c-0.4-4.2-1.7-6-4-6c-3.4,0-4.9,3-4.9,11.3c0,8.4,1.5,11.3,4.9,11.3c2.7,0,4.3-1.9,4.4-6.8h2.9
	c-0.1,6-2.7,9.3-7.3,9.3c-4.8,0-7.8-3.6-7.8-13.8c0-10.2,3-13.8,7.8-13.8c4,0,6.4,2.8,6.9,8.5H444.2z"/>
<path class="st0" d="M462.1,114.5c-4.5,0-7.6-3.8-7.6-13.8s3-13.8,7.6-13.8c4.5,0,7.6,3.8,7.6,13.8S466.7,114.5,462.1,114.5z
	 M462.1,89.4c-2.6,0-4.7,2.2-4.7,11.3c0,9.1,2.1,11.3,4.7,11.3s4.7-2.2,4.7-11.3C466.8,91.6,464.7,89.4,462.1,89.4z"/>
<path class="st0" d="M482.6,87.3l4.7,20.3h0.1l4.6-20.3h4.6v26.9h-2.7V89.6h-0.1l-5.6,24.6h-1.9l-5.6-24.6h-0.1v24.6h-2.7V87.3
	H482.6z"/>
<path class="st0" d="M510.8,87.3l4.7,20.3h0.1l4.6-20.3h4.6v26.9h-2.7V89.6H522l-5.6,24.6h-1.9l-5.6-24.6h-0.1v24.6h-2.7V87.3H510.8
	z"/>
<path class="st0" d="M537.4,87.3V107c0,2.7,0.8,5.1,3.9,5.1c3.2,0,3.9-2.3,3.9-5.1V87.3h2.9v19.8c0,4.3-2,7.4-6.8,7.4
	s-6.8-3.1-6.8-7.4V87.3H537.4z"/>
<path class="st0" d="M562.5,87.3l6.9,19.8h0.1V87.3h2.9v26.9h-3.1L561,90.8h-0.1v23.4H558V87.3H562.5z"/>
<path class="st0" d="M585.1,87.3v26.9h-2.9V87.3H585.1z"/>
<path class="st0" d="M607.3,87.3v2.5h-5.5v24.4h-2.9V89.8h-5.5v-2.5H607.3z"/>
<path class="st0" d="M614.7,87.3l4.6,11.8l4.5-11.8h3.1l-6.2,15.5v11.4h-2.9v-11.4l-6.2-15.5H614.7z"/>
<path class="st0" d="M444.2,132.6c-0.4-4.2-1.7-6-4-6c-3.4,0-4.9,3-4.9,11.3c0,8.4,1.5,11.3,4.9,11.3c2.7,0,4.3-1.9,4.4-6.8h2.9
	c-0.1,6-2.7,9.3-7.3,9.3c-4.8,0-7.8-3.6-7.8-13.8c0-10.2,3-13.8,7.8-13.8c4,0,6.4,2.8,6.9,8.5H444.2z"/>
<path class="st0" d="M462.1,151.7c-4.5,0-7.6-3.8-7.6-13.8s3-13.8,7.6-13.8c4.5,0,7.6,3.8,7.6,13.8S466.7,151.7,462.1,151.7z
	 M462.1,126.6c-2.6,0-4.7,2.2-4.7,11.3c0,9.1,2.1,11.3,4.7,11.3s4.7-2.2,4.7-11.3C466.8,128.8,464.7,126.6,462.1,126.6z"/>
<path class="st0" d="M481.1,124.5v24.4h8.7v2.5h-11.6v-26.9H481.1z"/>
<path class="st0" d="M499.5,124.5v24.4h8.7v2.5h-11.6v-26.9H499.5z"/>
<path class="st0" d="M527.2,124.5v2.5h-9.4v9.1h6.9v2.5h-6.9v10.3h9.8v2.5h-12.7v-26.9H527.2z"/>
<path class="st0" d="M545.5,132.7c-0.2-3.5-1.3-6.2-4.2-6.2c-3.2,0-4.8,2.9-4.8,11.3s1.6,11.3,4.8,11.3c2.7,0,4.2-1.5,4.2-4.2v-3.7
	h-3.6v-2.5h6.5v12.6h-1.9l-0.4-2c-1.1,1.5-2.7,2.4-4.9,2.4c-4.7,0-7.7-3.6-7.7-13.8c0-10.2,3-13.8,7.7-13.8c4.9,0,6.7,4.3,7.1,8.6
	L545.5,132.7L545.5,132.7z"/>
<path class="st0" d="M568.8,124.5v2.5h-9.4v9.1h6.9v2.5h-6.9v10.3h9.8v2.5h-12.7v-26.9H568.8z"/>
<g>
	<path class="st1" d="M72.3,125.2c26-8.3,55-30.4,51.7-86.2c-0.6-10.3-3.2-22.5-3.7-24c0,0-18.4-9.8-48-9.8s-48,9.8-48,9.8
		c-0.5,1.5-3.1,13.7-3.7,24C17.3,94.8,46.2,117,72.3,125.2z"/>
	<path class="st2" d="M72.3,125.2c26-8.3,55-30.4,51.7-86.2c-0.6-10.3-3.2-22.5-3.7-24c0,0-18.4-9.8-48-9.8s-48,9.8-48,9.8
		c-0.5,1.5-3.1,13.7-3.7,24C17.3,94.8,46.2,117,72.3,125.2z"/>
	<path class="st0" d="M72.3,121.5L72.3,121.5h-0.1C48.5,113.6,21,93,24.2,39.2c0.1-2.4,1.7-16.2,3.2-21.6v-0.1l0.1-0.1
		c12.8-5.7,28.4-8.8,44.9-8.8s32.1,3,44.9,8.8l0.1,0.1v0.1c1.4,5.3,3.1,19.2,3.2,21.6C123.6,93,96,113.6,72.3,121.5z"/>
	<path class="st3" d="M27.8,36.9c-0.1,1.1-0.5,8-0.5,10.7c0,19.6,4.6,35.7,13.5,47.9c7.5,10.2,18,17.7,31.3,22.3
		c13.3-4.6,23.9-12.1,31.3-22.3c9-12.3,13.5-28.4,13.5-48.1c0-2.6-0.3-9.3-0.5-10.6c-9.9-8-26.1-13.8-44.5-13.8
		C53.9,23.1,37.7,28.9,27.8,36.9z"/>
	<path class="st4" d="M116.7,36.9c-9.9-8-26.1-13.8-44.5-13.8v4.5c-1.5-0.2-3-0.3-4.6-0.3c-8.4,0-15.5,2.9-21.1,8.5
		c-5.6,5.7-8.4,12.8-8.4,21.3s2.8,15.5,8.2,20.8s12.6,7.9,21.3,7.9c1.5,0,3.1-0.1,4.6-0.3v10.7c-1.6-1.4-2.7-3-3.2-4.9
		c-1-3.5-3.2-4.4-4.6-4.4c-1.3,0-2.3,0.4-3.1,1.1c-0.6,0.6-1.4,1.7-1.4,3.6c0,1.3,0.4,3,1.1,5.6c0.6,2.4,1.4,5.7,1.7,6.3
		c0.5,1,1.1,1.8,2.2,2.5c1.4,0.9,3.4,1.7,6.1,2.4c0.4,0.1,0.9,0.2,1.3,0.3v9.2c13.3-4.6,23.9-12.1,31.3-22.3
		c9-12.2,13.5-28.3,13.5-47.9C117.2,45,116.9,38,116.7,36.9z M66.7,55.2C63,58.3,61,62.6,61,67.6c0,2.7,0.6,5.2,1.7,7.4
		c-2.4-1-4.4-2.5-6.1-4.7c-3.4-4.1-5-9.5-5-16.1c0-5.6,1.4-9.9,4.3-13c2.8-3,6.8-4.5,11.9-4.5c1.6,0,3.2,0.2,4.6,0.6V52
		C70.2,52.8,68.3,53.9,66.7,55.2z"/>
	<path class="st5" d="M72.3,20.4c15.7,0,31.7,4.4,43.7,10.4c-0.5-3.8-1.1-8-1.7-10.8c-12.1-5.1-26.6-7.9-42-7.9s-29.9,2.7-42,7.9
		c-0.6,2.9-1.3,7.1-1.8,11C40.7,24.9,56.5,20.4,72.3,20.4z"/>
	<g>
		<path class="st1" d="M136.7,84.7c0,0-0.6,0.7-1.5,0.7c-2.8-0.2,0.7-6.7,4-8c-7.3-0.5-10,7.4-11.5,7.3c-0.9-0.1-1.5-1.1-0.9-1.8
			c-4.1,0.2-2.6,13.8-6.1,13.6c-1-0.1-1.1-0.7-0.9-1.5c-2.8,0.2-4.1,14.4-7.2,14.2c-1.3-0.1-1.7-1.4-1.1-2.3
			c-3.5,0.1-6.5,11.3-9.5,11.1c-1.2-0.1-2.1-0.7-1.5-2.2c-4.3,0.5-8.2,10.9-10.8,10.7c-1-0.1-1.3-1.1-0.6-2.6
			c-7.6,3.3-8.9,11.3-10.5,12.6c-0.7,0.5-3.1,1.1-6.3,2c-3.2-0.9-5.6-1.5-6.3-2c-1.7-1.2-2.9-9.2-10.5-12.6c0.7,1.5,0.3,2.5-0.6,2.6
			c-2.6,0.2-6.5-10.2-10.8-10.7c0.7,1.5-0.2,2.1-1.5,2.2c-2.9,0.2-6-11-9.5-11.1c0.6,0.9,0.2,2.2-1.1,2.3c-3.1,0.2-4.4-14-7.2-14.2
			c0.2,0.7,0.1,1.4-0.9,1.5c-3.5,0.2-2-13.3-6.1-13.6c0.6,0.7-0.1,1.7-0.9,1.8c-1.5,0.1-4.2-7.8-11.5-7.3c3.3,1.3,6.7,7.8,4,8
			c-0.9,0.1-1.5-0.7-1.5-0.7c-1,6.5,6.8,13.3,3.4,14.1c-0.8,0.2-1.2-0.5-1.5-0.9c0.2,9.1,9.3,13.7,9.5,15.9c0.1,0.5-0.3,1.1-1.4,1.2
			c-1,0.1-2-0.4-2.1-0.9c2,11.8,13.4,10,13.6,13.4c0.1,1.2-0.3,1.7-1.1,1.8c-0.8,0.1-1.4,0-1.7-0.2c3.6,7.6,15.5,3.4,15.8,7.9
			c0.1,1.2-0.6,2.2-2.3,1.8c0.1,2,7.2,4.3,14,3.8c4.4-0.3,6.2-3.1,9.8-3.4c1.8-0.2,3.6-0.1,5.4,0.1c-6.7,2.2-15.1,5.9-19.2,13.3
			c1,0.7,1.3,2.3,1.7,2.7c1.1-1,1-0.7,1-1.7c0.1-1,0.3-2.3,3.2-5.4c1.5-1.7,8.3-6.4,16.3-8.3c8.1,1.8,14.8,6.6,16.3,8.3
			c2.9,3.2,3.2,4.4,3.2,5.4c0.1,1-0.1,0.7,1,1.7c0.4-0.4,0.7-2,1.7-2.7c-4.1-7.3-12.6-11.1-19.2-13.3c1.8-0.2,3.6-0.3,5.4-0.1
			c3.6,0.3,5.4,3.2,9.8,3.4c6.8,0.5,13.9-1.8,14-3.8c-1.7,0.4-2.4-0.6-2.3-1.8c0.3-4.5,12.2-0.3,15.8-7.9c-0.2,0.2-0.9,0.2-1.7,0.2
			s-1.2-0.6-1.1-1.8c0.2-3.4,11.6-1.6,13.6-13.4c-0.4,0.4-1.1,0.9-2.1,0.9c-1-0.1-1.4-0.7-1.4-1.2c0.2-2.2,9.3-6.8,9.5-15.9
			c-0.3,0.4-0.7,1.1-1.5,0.9C129.9,98,137.8,91.3,136.7,84.7z"/>
		<path class="st4" d="M136.7,84.7c0,0-0.6,0.7-1.5,0.7c-2.8-0.2,0.7-6.7,4-8c-7.3-0.5-10,7.4-11.5,7.3c-0.9-0.1-1.5-1.1-0.9-1.8
			c-4.1,0.2-2.6,13.8-6.1,13.6c-1-0.1-1.1-0.7-0.9-1.5c-2.8,0.2-4.1,14.4-7.2,14.2c-1.3-0.1-1.7-1.4-1.1-2.3
			c-3.5,0.1-6.5,11.3-9.5,11.1c-1.2-0.1-2.1-0.7-1.5-2.2c-4.3,0.5-8.2,10.9-10.8,10.7c-1-0.1-1.3-1.1-0.6-2.6
			c-7.6,3.3-8.9,11.3-10.5,12.6c-0.7,0.5-3.1,1.1-6.3,2c-3.2-0.9-5.6-1.5-6.3-2c-1.7-1.2-2.9-9.2-10.5-12.6c0.7,1.5,0.3,2.5-0.6,2.6
			c-2.6,0.2-6.5-10.2-10.8-10.7c0.7,1.5-0.2,2.1-1.5,2.2c-2.9,0.2-6-11-9.5-11.1c0.6,0.9,0.2,2.2-1.1,2.3c-3.1,0.2-4.4-14-7.2-14.2
			c0.2,0.7,0.1,1.4-0.9,1.5c-3.5,0.2-2-13.3-6.1-13.6c0.6,0.7-0.1,1.7-0.9,1.8c-1.5,0.1-4.2-7.8-11.5-7.3c3.3,1.3,6.7,7.8,4,8
			c-0.9,0.1-1.5-0.7-1.5-0.7c-1,6.5,6.8,13.3,3.4,14.1c-0.8,0.2-1.4-0.5-1.5-0.9c0.2,9.1,9.3,13.7,9.5,15.9c0.1,0.5-0.3,1.1-1.4,1.2
			c-1,0.1-2-0.4-2.1-0.9c2,11.8,13.4,10,13.6,13.4c0.1,1.2-0.3,1.7-1.1,1.8c-0.8,0.1-1.4,0-1.7-0.2c3.6,7.6,15.5,3.4,15.8,7.9
			c0.1,1.2-0.6,2.2-2.3,1.8c0.1,2,7.2,4.3,14,3.8c4.4-0.3,6.2-3.1,9.8-3.4c1.8-0.2,3.6-0.1,5.4,0.1c-6.7,2.2-15.1,5.9-19.2,13.3
			c1,0.7,1.3,2.3,1.7,2.7c1.1-1,1-0.7,1-1.7c0.1-1,0.3-2.3,3.2-5.4c1.5-1.7,8.3-6.4,16.3-8.3c8.1,1.8,14.8,6.6,16.3,8.3
			c2.9,3.2,3.2,4.4,3.2,5.4c0.1,1-0.1,0.7,1,1.7c0.4-0.4,0.7-2,1.7-2.7c-4.1-7.3-12.6-11.1-19.2-13.3c1.8-0.2,3.6-0.3,5.4-0.1
			c3.6,0.3,5.4,3.2,9.8,3.4c6.8,0.5,13.9-1.8,14-3.8c-1.7,0.4-2.4-0.6-2.3-1.8c0.3-4.5,12.2-0.3,15.8-7.9c-0.2,0.2-0.9,0.2-1.7,0.2
			s-1.2-0.6-1.1-1.8c0.2-3.4,11.6-1.6,13.6-13.4c-0.2,0.5-1.1,0.9-2.1,0.9c-1-0.1-1.4-0.7-1.4-1.2c0.2-2.2,9.3-6.8,9.5-15.9
			c-0.1,0.4-0.7,1.1-1.5,0.9C129.9,98,137.8,91.3,136.7,84.7z"/>
		<path class="st0" d="M49.9,131.1c-3.1-1.8-6.4-4.2-7.8-5.2c-0.7-0.5-2.9-2.2-3.3-2.5c-1.3-1.6-1.8-3.6-1.8-3.8
			c-0.3-1.2-0.6-3.3-0.7-3.6c-0.3-1.4-0.6-2.4-1.1-3c0.3,0.7,0.6,2.1,0.8,4.3c0.1,0.4,0.2,2.2,0.7,3.5c0.1,0.3,0.3,0.8,0.8,1.7
			c-5.8-4.8-10.3-9.9-12.7-13.1c-0.5-0.7-2.5-3.2-3.9-5.6c-0.5-0.9-2.4-3.8-4.2-8.1c1,3.2,2.2,5.2,2.8,6.7c0.6,1.3,3,5.3,4,6.5
			c-1-0.9-3.4-2.4-4.4-2.9c-1.9-1.2-2.8-2.1-3.4-2.8c0.7,1.5,1.6,2.1,2.6,2.9c1.3,1,4.8,3,6.2,4.3c1.6,2.2,4.1,5,4.8,5.7
			c1.3,1.3,3.7,3.8,6.2,6c-0.5-0.2-1.9-0.9-4.3-1.4c-1.8-0.5-3.8-0.8-5.4-1.3c-0.5-0.1-1.4-0.5-2.4-1c0.5,0.3,1,0.7,2.2,1.3
			c1.4,0.6,3.2,1,5.4,1.5c2.9,0.7,4.7,1.4,5.5,1.8c0.4,0.3,3,2.5,5,3.8c1.6,1.1,4.9,3.4,7.5,4.8c-2-0.6-4.4-0.8-6.1-0.8
			c-0.5,0-3,0.1-4.2,0.1c-0.4,0-1.8-0.1-2.6-0.3c1.6,0.7,3,0.6,3.8,0.7c0.8,0.1,2.6,0.1,2.9,0.1c1,0,4.6,0.1,7.9,1.3
			c2.3,1.3,4.2,2,7.1,3.1C56.3,134.6,53.2,133,49.9,131.1z"/>
		<path class="st0" d="M94.8,131.1c3.1-1.8,6.4-4.2,7.8-5.2c0.7-0.5,2.9-2.2,3.3-2.5c1.3-1.6,1.8-3.6,1.8-3.8
			c0.3-1.2,0.6-3.3,0.7-3.6c0.3-1.4,0.6-2.4,1.1-3c-0.3,0.7-0.6,2.1-0.8,4.3c-0.1,0.4-0.2,2.2-0.7,3.5c-0.1,0.3-0.3,0.8-0.8,1.7
			c5.8-4.8,10.3-9.9,12.7-13.1c0.5-0.7,2.5-3.2,3.9-5.6c0.5-0.9,2.4-3.8,4.2-8.1c-1,3.2-2.2,5.2-2.8,6.7c-0.6,1.3-3,5.3-4,6.5
			c1-0.9,3.4-2.4,4.4-2.9c1.9-1.2,2.8-2.1,3.4-2.8c-0.7,1.5-1.6,2.1-2.6,2.9c-1.3,1-4.8,3-6.2,4.3c-1.6,2.2-4.1,5-4.8,5.7
			c-1.3,1.3-3.7,3.8-6.2,6c0.5-0.2,1.9-0.9,4.3-1.4c1.8-0.5,3.8-0.8,5.4-1.3c0.5-0.1,1.4-0.5,2.4-1c-0.5,0.3-1,0.7-2.2,1.3
			c-1.4,0.6-3.2,1-5.4,1.5c-2.9,0.7-4.7,1.4-5.5,1.8c-0.4,0.3-3,2.5-5,3.8c-1.6,1.1-4.9,3.4-7.5,4.8c2-0.6,4.4-0.8,6.1-0.8
			c0.5,0,3,0.1,4.2,0.1c0.4,0,1.8-0.1,2.6-0.3c-1.6,0.7-3,0.6-3.8,0.7c-0.8,0.1-2.6,0.1-2.9,0.1c-1,0-4.6,0.1-7.9,1.3
			c-2.3,1.3-4.2,2-7.1,3.1C88.2,134.6,91.4,133,94.8,131.1z"/>
	</g>
	<path class="st0" d="M85.8,77.2c0.1-0.1,0.2-0.1,0.3-0.2c1.1-0.7,1.7-1.4,1.8-2.1l0.2-0.6l0.8-4.4L89,69l0.1-0.4
		c0-0.3-0.1-0.5-0.2-0.7c-0.1-0.1-0.3-0.2-0.5-0.2c-0.3,0-0.7,0.3-1.5,2.1c-1,2.2-2.8,4.1-5.2,5.7c-4.1-1.4-6.8-2.4-7.9-2.9
		c-1.1-0.6-2.2-1.5-3.2-2.7c-1.1-1.4-1.7-3.2-1.7-5.2c0-2.2,0.9-4.1,2.6-5.6c1.7-1.5,3.8-2.2,6.4-2.2c3.2,0,6.2,0.9,8.8,2.5
		c2.6,1.7,4.4,3.8,5.2,6.4c0.4,1.3,0.9,1.8,1.3,1.8c0.4,0,0.9-0.2,0.9-1.3c0-0.2-0.1-0.6-0.2-1.5l-0.6-3.7c-0.4-2.5-0.5-3.3-0.5-3.6
		c0-0.9-0.2-1.4-0.5-1.7c-0.2-0.2-0.3-0.2-0.6-0.2c-0.2,0-0.5,0.1-0.5,0.2l-0.5,0.5c-0.5,0.4-0.9,0.4-1.4,0.2l-2.5-1
		c-1.8-0.7-4-1.1-6.6-1.1c-4.6,0-8.4,1.3-11.3,3.7c-2.9,2.5-4.4,5.7-4.4,9.6c0,3.5,1.1,6.4,3.4,8.6c1.1,1.1,2.6,2.1,4.5,3.1
		c-1.1,0.2-2.3,0.3-3.4,0.3c-6.1,0-11.2-2.4-15.1-7.1c-3.9-4.7-5.9-10.9-5.9-18.4c0-6.5,1.8-11.6,5.3-15.4c3.5-3.7,8.3-5.6,14.4-5.6
		c7.6,0,13.7,4,18.2,11.8c0.8,1.4,1.2,1.6,1.4,1.6c0.3-0.1,0.5-0.2,0.7-0.5l0.1-0.4L87,36c-0.1-0.4-0.2-1.5-0.9-1.5
		c-0.2,0-0.4,0.1-1.2,0.6c-0.2,0.2-0.3,0.2-0.4,0.2l-0.6-0.2l-0.6-0.2l-1.4-0.7c-4.2-2.3-9-3.4-14.1-3.4c-7.4,0-13.7,2.5-18.6,7.5
		s-7.4,11.3-7.4,18.8c0,7.5,2.4,13.7,7.2,18.2c4.8,4.6,11.1,6.9,18.9,6.9c3,0,6-0.4,8.8-1.1c0.9,0.3,1.8,0.7,2.9,1.1
		c5.1,1.7,8.3,3,9.3,4c2.1,1.8,3.1,4,3.1,6.7c0,2.8-1.1,5.1-3.4,7s-5,2.9-8.3,2.9c-3.2,0-6.3-1-9-3c-2.8-2-4.6-4.5-5.4-7.5
		c-0.3-1.3-0.8-1.8-1.3-1.9c-0.2,0-0.5,0.1-0.6,0.2c-0.2,0.2-0.3,0.5-0.3,1c0,0.9,0.3,2.5,0.9,4.6c0.6,2,0.9,3.1,0.9,3.3
		c0.3,1.4,0.5,2.2,0.7,2.5c0.2,0.3,0.5,0.7,0.9,1c1,0.7,2.7,1.3,4.9,1.9c2.2,0.5,4.3,0.8,6.1,0.8c5.2,0,9.4-1.4,12.7-4.4
		c3.3-2.9,5-6.7,5-11.2C95.6,84.5,92.4,80.1,85.8,77.2z"/>
</g>
</svg>
